<svg version="1.1" id="Layer_1" xmlns="http://www.w3.org/2000/svg" xmlns:xlink="http://www.w3.org/1999/xlink" x="0px" y="0px"
	 viewBox="0 0 64 64" enable-background="new 0 0 64 64" xml:space="preserve">
	
	<path fill="#FC724C" d="M32,0c17.7,0,32,14.3,32,32S49.7,64,32,64S0,49.7,0,32S14.3,0,32,0z"/>
	
	<path fill="#424A51" d="M38.9,36.9c0,0,0.1,0,0.1,0l-0.5,12.9c0,3.1,2.2,5.6,4.9,5.6V37.7v-0.8"/>

	<path fill="#EBECED" d="M38.9,36.9c-1.8-0.5-2.8-1.7-2.8-3.9l0-9.9c0-5.6,2.5-11.4,7.3-12.6v5.6v20.8"/>

	<line fill="#EBECED" x1="38.9" y1="36.9" x2="43.4" y2="36.9"/>

	<path fill="#424A51" d="M23.2,36.9l-0.4,15.3c0,1.8,1.3,3.3,2.8,3.3s2.8-1.5,2.8-3.3l-0.4-15.3"/>

	<path fill="#EBECED" d="M30.8,10.5v12.3c0,0.5-0.4,0.9-0.8,0.9s-0.8-0.4-0.8-0.9l-0.4-12.3l-1.4,0l-0.6,12.3
		c0,0.5-0.4,0.9-0.8,0.9s-0.8-0.4-0.8-0.9l-0.4-12.3l-1.6,0l-0.4,12.2c0,0.5-0.4,0.9-0.8,0.9s-0.8-0.4-0.8-0.9V10.6l-1.6,0
		l-1,11.3c-0.1,5.6,2,8.4,4.8,9.4l-0.1,5.6h4.8l-0.2-5.6c2.9-1,5-4.1,5-9.4l-1-11.4L30.8,10.5z"/>
					
</svg>
