<svg version="1.1" id="Layer_1" xmlns="http://www.w3.org/2000/svg" xmlns:xlink="http://www.w3.org/1999/xlink" x="0px" y="0px"
	 viewBox="0 0 64 64" enable-background="new 0 0 64 64" xml:space="preserve">

	<path fill="#FFD833" d="M32,0c17.7,0,32,14.3,32,32S49.7,64,32,64S0,49.7,0,32S14.3,0,32,0z"/>

	<path fill="#F94646" d="M49,27.8c0-4.8-3.9-8.8-8.8-8.8c-3.7,0-6.9,2.3-8.2,5.5c-1.3-3.2-4.5-5.5-8.2-5.5c-4.9,0-8.8,3.9-8.8,8.8
		c0,0.1,0,0.5,0,0.6C15,35.7,26.9,39,32,49c5-9.9,17-13.2,17-20.6C49,28.2,49,27.8,49,27.8z"/>

	<path fill="#FFFFFF" d="M19,30c-0.6,0-1-0.4-1-1c0-3.9,3.1-7,7-7c0.6,0,1,0.4,1,1s-0.4,1-1,1c-2.8,0-5,2.2-5,5
		C20,29.6,19.6,30,19,30z"/>
</svg>
